<svg width="81" height="81" viewBox="0 0 81 81" fill="none" xmlns="http://www.w3.org/2000/svg">
<path d="M40.4999 29.4653V2.71582" stroke="black" stroke-width="0.603175"/>
<path d="M36.9871 6.01298L40.5 2.5L44.013 6.01298" stroke="black" stroke-width="0.603175" stroke-linecap="round" stroke-linejoin="round"/>
<path d="M40.4999 51.5342V78.2837" stroke="black" stroke-width="0.603175"/>
<path d="M44.0128 74.987L40.4998 78.5L36.9868 74.987" stroke="black" stroke-width="0.603175" stroke-linecap="round" stroke-linejoin="round"/>
<path d="M29.4651 40.5H2.71558" stroke="black" stroke-width="0.603175"/>
<path d="M6.01297 44.0122L2.5 40.4992L6.01297 36.9863" stroke="black" stroke-width="0.603175" stroke-linecap="round" stroke-linejoin="round"/>
<path d="M51.5347 40.5L78.2842 40.5" stroke="black" stroke-width="0.603175"/>
<path d="M74.9871 36.9873L78.5 40.5003L74.9871 44.0132" stroke="black" stroke-width="0.603175" stroke-linecap="round" stroke-linejoin="round"/>
<path d="M32.6968 48.3025L13.782 67.2173" stroke="black" stroke-width="0.603175"/>
<path d="M18.5982 67.37L13.6301 67.37L13.6301 62.4019" stroke="black" stroke-width="0.603175" stroke-linecap="round" stroke-linejoin="round"/>
<path d="M48.303 32.697L67.2178 13.7822" stroke="black" stroke-width="0.603175"/>
<path d="M62.4016 13.6296L67.3697 13.6296L67.3697 18.5977" stroke="black" stroke-width="0.603175" stroke-linecap="round" stroke-linejoin="round"/>
<path d="M32.6968 32.697L13.782 13.7822" stroke="black" stroke-width="0.603175"/>
<path d="M13.6297 18.5983V13.6302L18.5978 13.6302" stroke="black" stroke-width="0.603175" stroke-linecap="round" stroke-linejoin="round"/>
<path d="M48.303 48.3025L67.2178 67.2173" stroke="black" stroke-width="0.603175"/>
<path d="M67.3704 62.4017L67.3704 67.3698L62.4023 67.3698" stroke="black" stroke-width="0.603175" stroke-linecap="round" stroke-linejoin="round"/>
<rect x="44.4578" y="44.4577" width="7.91594" height="7.91594" transform="rotate(-180 44.4578 44.4577)" fill="#2D4CFF" stroke="black" stroke-width="0.603175"/>
<rect x="70.1412" y="70.1419" width="4.57439" height="4.57439" fill="black" stroke="black" stroke-width="0.603175"/>
<rect x="6.28444" y="70.1419" width="4.57439" height="4.57439" fill="black" stroke="black" stroke-width="0.603175"/>
<rect x="70.1412" y="6.2845" width="4.57439" height="4.57439" fill="black" stroke="black" stroke-width="0.603175"/>
<rect x="6.28444" y="6.2845" width="4.57439" height="4.57439" fill="black" stroke="black" stroke-width="0.603175"/>
</svg>
