<svg width="48" height="82" viewBox="0 0 48 82" fill="none" xmlns="http://www.w3.org/2000/svg">
<rect x="22.4" y="60.1174" width="4.2442" height="4.26667" transform="rotate(-90 22.4 60.1174)" fill="#FF2C2F"/>
<rect x="22.4" y="19.7974" width="4.2442" height="4.26667" transform="rotate(-90 22.4 19.7974)" fill="#FF2C2F"/>
<path d="M2.71407 43.1399L10.3089 35.5851L10.3089 27.0789" stroke="#171B33" stroke-opacity="0.5" stroke-width="1.06105" stroke-linecap="round" stroke-linejoin="round"/>
<path d="M41.6 17.6753C41.6 8.29926 33.959 0.698481 24.5333 0.698482C15.1077 0.698482 7.46666 8.29926 7.46666 17.6753C7.46666 27.0513 15.1077 34.6521 24.5333 34.6521C33.959 34.6521 41.6 27.0513 41.6 17.6753Z" stroke="#171B33" stroke-opacity="0.5" stroke-width="1.06105" stroke-linecap="round" stroke-linejoin="round"/>
<path d="M29.8667 17.6752C29.8667 14.7452 27.4789 12.37 24.5333 12.37C21.5878 12.37 19.2 14.7452 19.2 17.6752C19.2 20.6052 21.5878 22.9805 24.5333 22.9805C27.4789 22.9805 29.8667 20.6052 29.8667 17.6752Z" stroke="#171B33" stroke-opacity="0.5" stroke-width="1.06105" stroke-linecap="round" stroke-linejoin="round"/>
<path d="M19.4935 16.3168C14.177 14.7666 10.283 16.2954 7.81146 20.9031" stroke="#171B33" stroke-opacity="0.5" stroke-width="1.06105" stroke-linecap="round" stroke-linejoin="round"/>
<path d="M29.8664 19.212C35.1829 20.7622 39.0769 19.2334 41.5484 14.6257" stroke="#171B33" stroke-opacity="0.5" stroke-width="1.06105" stroke-linecap="round" stroke-linejoin="round"/>
<path d="M22.6342 22.9208C21.0759 28.2092 22.6127 32.0827 27.2448 34.5413" stroke="#171B33" stroke-opacity="0.5" stroke-width="1.06105" stroke-linecap="round" stroke-linejoin="round"/>
<path d="M25.545 12.3703C27.1033 7.32324 25.5665 3.62657 20.9344 1.28027" stroke="#171B33" stroke-opacity="0.5" stroke-width="1.06105" stroke-linecap="round" stroke-linejoin="round"/>
<path d="M20.0039 20.2593C15.1427 22.9027 13.4759 26.7227 15.0036 31.7192" stroke="#171B33" stroke-opacity="0.5" stroke-width="1.06105" stroke-linecap="round" stroke-linejoin="round"/>
<path d="M29.3971 15.0105C34.2584 12.3671 35.9251 8.54712 34.3974 3.55054" stroke="#171B33" stroke-opacity="0.5" stroke-width="1.06105" stroke-linecap="round" stroke-linejoin="round"/>
<path d="M26.919 22.7202C29.5764 27.5558 33.4166 29.2138 38.4396 27.6941" stroke="#171B33" stroke-opacity="0.5" stroke-width="1.06105" stroke-linecap="round" stroke-linejoin="round"/>
<path d="M21.5153 13.2503C19.0123 8.56819 15.2851 7.0227 10.3339 8.61377" stroke="#171B33" stroke-opacity="0.5" stroke-width="1.06105" stroke-linecap="round" stroke-linejoin="round"/>
<path d="M41.6 57.9951C41.6 48.6191 33.959 41.0183 24.5333 41.0183C15.1077 41.0183 7.46666 48.6191 7.46666 57.9951C7.46666 67.3711 15.1077 74.9719 24.5333 74.9719C33.959 74.9719 41.6 67.3711 41.6 57.9951Z" stroke="#171B33" stroke-opacity="0.5" stroke-width="1.06105" stroke-linecap="round" stroke-linejoin="round"/>
<path d="M29.8667 57.9953C29.8667 55.0653 27.4789 52.69 24.5333 52.69C21.5878 52.69 19.2 55.0653 19.2 57.9953C19.2 60.9253 21.5878 63.3005 24.5333 63.3005C27.4789 63.3005 29.8667 60.9253 29.8667 57.9953Z" stroke="#171B33" stroke-opacity="0.5" stroke-width="1.06105" stroke-linecap="round" stroke-linejoin="round"/>
<path d="M19.4935 56.6366C14.177 55.0864 10.283 56.6152 7.81146 61.2229" stroke="#171B33" stroke-opacity="0.5" stroke-width="1.06105" stroke-linecap="round" stroke-linejoin="round"/>
<path d="M29.8664 59.5321C35.1829 61.0823 39.0769 59.5535 41.5484 54.9458" stroke="#171B33" stroke-opacity="0.5" stroke-width="1.06105" stroke-linecap="round" stroke-linejoin="round"/>
<path d="M22.6342 63.2406C21.0759 68.529 22.6127 72.4025 27.2448 74.8611" stroke="#171B33" stroke-opacity="0.5" stroke-width="1.06105" stroke-linecap="round" stroke-linejoin="round"/>
<path d="M25.545 52.6903C27.1033 47.6433 25.5665 43.9466 20.9344 41.6003" stroke="#171B33" stroke-opacity="0.5" stroke-width="1.06105" stroke-linecap="round" stroke-linejoin="round"/>
<path d="M20.0039 60.5791C15.1427 63.2225 13.4759 67.0425 15.0036 72.0391" stroke="#171B33" stroke-opacity="0.5" stroke-width="1.06105" stroke-linecap="round" stroke-linejoin="round"/>
<path d="M29.3971 55.3306C34.2584 52.6872 35.9251 48.8672 34.3974 43.8706" stroke="#171B33" stroke-opacity="0.5" stroke-width="1.06105" stroke-linecap="round" stroke-linejoin="round"/>
<path d="M26.919 63.0402C29.5764 67.8759 33.4166 69.5338 38.4396 68.0142" stroke="#171B33" stroke-opacity="0.5" stroke-width="1.06105" stroke-linecap="round" stroke-linejoin="round"/>
<path d="M21.5152 53.5703C19.0123 48.8883 15.2851 47.3428 10.3339 48.9338" stroke="#171B33" stroke-opacity="0.5" stroke-width="1.06105" stroke-linecap="round" stroke-linejoin="round"/>
<path d="M38.4255 80.6985L38.4255 67.972M38.4255 47.9955L38.4255 38.1584L46.28 30.3453" stroke="#171B33" stroke-opacity="0.5" stroke-width="1.06105" stroke-linecap="round" stroke-linejoin="round"/>
<rect y="45.2627" width="5.30525" height="5.33333" transform="rotate(-90 0 45.2627)" fill="#171B33" fill-opacity="0.5"/>
<rect x="0.608795" y="44.6539" width="4.08766" height="4.11574" transform="rotate(-90 0.608795 44.6539)" stroke="#171B33" stroke-opacity="0.5" stroke-width="1.21759"/>
<rect x="42.6667" y="33.5911" width="5.30525" height="5.33333" transform="rotate(-90 42.6667 33.5911)" fill="#171B33" fill-opacity="0.5"/>
<rect x="43.2755" y="32.9823" width="4.08766" height="4.11574" transform="rotate(-90 43.2755 32.9823)" stroke="#171B33" stroke-opacity="0.5" stroke-width="1.21759"/>
</svg>
