<svg width="81" height="81" viewBox="0 0 81 81" fill="none" xmlns="http://www.w3.org/2000/svg">
<path d="M9.80763 40.4994C9.80763 57.4503 23.549 71.1917 40.4999 71.1917C57.4508 71.1917 71.1922 57.4503 71.1922 40.4994C71.1922 23.5485 57.4508 9.80713 40.4999 9.80713C23.549 9.80713 9.80763 23.5485 9.80763 40.4994Z" stroke="black" stroke-width="0.730769" stroke-linecap="round" stroke-linejoin="round"/>
<path d="M9.80763 40.4994C9.80763 50.1856 23.549 58.0379 40.4999 58.0379C57.4508 58.0379 71.1922 50.1856 71.1922 40.4994C71.1922 30.8132 57.4508 22.9609 40.4999 22.9609C23.549 22.9609 9.80763 30.8132 9.80763 40.4994Z" stroke="black" stroke-width="0.730769" stroke-linecap="round" stroke-linejoin="round"/>
<path d="M40.5 9.80728C30.8137 9.80728 22.9615 23.5487 22.9615 40.4996C22.9615 57.4505 30.8137 71.1919 40.5 71.1919C50.1862 71.1919 58.0384 57.4505 58.0384 40.4996C58.0384 23.5487 50.1862 9.80728 40.5 9.80728Z" stroke="black" stroke-width="0.730769" stroke-linecap="round" stroke-linejoin="round"/>
<path d="M71.923 40.4995L9.80767 40.4995" stroke="black" stroke-width="0.730769" stroke-linecap="round" stroke-linejoin="round"/>
<path d="M40.5 71.1916L40.5 9.07617" stroke="black" stroke-width="0.730769" stroke-linecap="round" stroke-linejoin="round"/>
<rect x="43.7884" y="43.7074" width="7.22692" height="7.22692" transform="rotate(-180 43.7884 43.7074)" fill="#2D4CFF" stroke="#F5F6FC" stroke-width="0.730769"/>
<rect x="73.0192" y="42.327" width="3.65385" height="3.65385" transform="rotate(-180 73.0192 42.327)" fill="black" stroke="black" stroke-width="0.730769"/>
<rect x="11.6346" y="42.327" width="3.65385" height="3.65385" transform="rotate(-180 11.6346 42.327)" fill="black" stroke="black" stroke-width="0.730769"/>
<mask id="path-9-inside-1_9_263" fill="white">
<path d="M40.5 2.5C32.6075 2.5 24.9108 4.95751 18.4787 9.53128C12.0465 14.1051 7.19816 20.5681 4.60673 28.0231C2.01531 35.478 1.80944 43.5549 4.01772 51.1322C6.22601 58.7095 10.7388 65.4112 16.9296 70.3067L17.3265 69.8048C11.24 64.9917 6.80312 58.4029 4.63202 50.9532C2.46092 43.5035 2.66332 35.5626 5.21111 28.2332C7.7589 20.9038 12.5257 14.5495 18.8495 10.0527C25.1733 5.55598 32.7404 3.13985 40.5 3.13985L40.5 2.5Z"/>
</mask>
<path d="M40.5 2.5C32.6075 2.5 24.9108 4.95751 18.4787 9.53128C12.0465 14.1051 7.19816 20.5681 4.60673 28.0231C2.01531 35.478 1.80944 43.5549 4.01772 51.1322C6.22601 58.7095 10.7388 65.4112 16.9296 70.3067L17.3265 69.8048C11.24 64.9917 6.80312 58.4029 4.63202 50.9532C2.46092 43.5035 2.66332 35.5626 5.21111 28.2332C7.7589 20.9038 12.5257 14.5495 18.8495 10.0527C25.1733 5.55598 32.7404 3.13985 40.5 3.13985L40.5 2.5Z" fill="black" stroke="black" stroke-width="1.46154" mask="url(#path-9-inside-1_9_263)"/>
<mask id="path-10-inside-2_9_263" fill="white">
<path d="M23.8815 74.6735C28.6367 76.9859 33.8221 78.2805 39.1061 78.4744C44.3902 78.6684 49.6566 77.7574 54.5684 75.7998C59.4803 73.8423 63.9296 70.8811 67.6317 67.1058C71.3339 63.3305 74.2074 58.8241 76.0684 53.8748C77.9295 48.9256 78.7372 43.6424 78.4399 38.3631C78.1425 33.0839 76.7467 27.9248 74.3416 23.2158C71.9366 18.5068 68.5753 14.3516 64.4726 11.0159C60.37 7.68014 55.6163 5.23733 50.5157 3.84368L50.347 4.4609C55.3618 5.8311 60.0354 8.23277 64.069 11.5123C68.1025 14.7919 71.4073 18.8772 73.7718 23.5069C76.1364 28.1365 77.5087 33.2088 77.801 38.3991C78.0934 43.5895 77.2993 48.7837 75.4695 53.6496C73.6398 58.5155 70.8147 62.9461 67.1749 66.6578C63.5351 70.3695 59.1607 73.2808 54.3316 75.2055C49.5024 77.1301 44.3247 78.0257 39.1296 77.835C33.9345 77.6443 28.8364 76.3715 24.1613 74.098L23.8815 74.6735Z"/>
</mask>
<path d="M23.8815 74.6735C28.6367 76.9859 33.8221 78.2805 39.1061 78.4744C44.3902 78.6684 49.6566 77.7574 54.5684 75.7998C59.4803 73.8423 63.9296 70.8811 67.6317 67.1058C71.3339 63.3305 74.2074 58.8241 76.0684 53.8748C77.9295 48.9256 78.7372 43.6424 78.4399 38.3631C78.1425 33.0839 76.7467 27.9248 74.3416 23.2158C71.9366 18.5068 68.5753 14.3516 64.4726 11.0159C60.37 7.68014 55.6163 5.23733 50.5157 3.84368L50.347 4.4609C55.3618 5.8311 60.0354 8.23277 64.069 11.5123C68.1025 14.7919 71.4073 18.8772 73.7718 23.5069C76.1364 28.1365 77.5087 33.2088 77.801 38.3991C78.0934 43.5895 77.2993 48.7837 75.4695 53.6496C73.6398 58.5155 70.8147 62.9461 67.1749 66.6578C63.5351 70.3695 59.1607 73.2808 54.3316 75.2055C49.5024 77.1301 44.3247 78.0257 39.1296 77.835C33.9345 77.6443 28.8364 76.3715 24.1613 74.098L23.8815 74.6735Z" fill="black" stroke="black" stroke-width="1.46154" mask="url(#path-10-inside-2_9_263)"/>
</svg>
