<svg width="48" height="81" viewBox="0 0 48 81" fill="none" xmlns="http://www.w3.org/2000/svg">
<path d="M8.36685 3.07666C14.7654 6.08675 43.0244 7.82608 43.0244 12.5845C43.0244 17.9503 7.08941 17.6996 7.08941 23.3162C7.08941 28.9327 43.0244 29.1698 43.0244 35.0235C43.0244 40.8772 7.08941 41.1278 7.08941 46.7308C7.08941 52.3338 43.0244 52.0967 43.0244 57.4625C43.0244 62.2399 14.5397 62.7638 8.29142 66.6082" stroke="#171B33" stroke-opacity="0.5" stroke-width="0.97561" stroke-linecap="round" stroke-linejoin="round"/>
<path d="M8.40473 15.7769C9.13472 16.1152 10.1405 16.4375 11.3507 16.75M16.0028 17.7556C17.2325 17.9886 18.5389 18.2196 19.8878 18.4517M24.2071 19.1841C25.6294 19.4252 27.0589 19.6704 28.4597 19.9229M32.7447 20.7475C34.3357 21.0791 35.8276 21.4263 37.155 21.7948M41.6499 23.5229C42.5273 24.0578 43.0244 24.6358 43.0244 25.267C43.0244 25.8858 42.5464 26.43 41.7006 26.9171M37.1876 28.471C35.8958 28.7777 34.447 29.0605 32.9019 29.329M28.5564 30.024C27.0878 30.2446 25.5868 30.4608 24.0947 30.6794M20.1726 31.2712C18.8192 31.4847 17.5058 31.7054 16.2665 31.9387M10.7964 33.2508C9.43989 33.6929 8.38632 34.1851 7.7548 34.7466M7.80929 37.3083C8.39472 37.8147 9.31435 38.2713 10.4832 38.6911M16.0144 40.1488C17.2548 40.4068 18.573 40.6538 19.9339 40.8949M23.7691 41.5493C25.1739 41.7833 26.5892 42.0165 27.9805 42.2541M32.2644 43.0272C33.7934 43.324 35.2389 43.6346 36.5449 43.9675M41.6331 45.8452C42.5209 46.3989 43.0244 47.0131 43.0244 47.706C43.0244 48.4738 42.4061 49.1452 41.3318 49.745M36.6597 51.4173C35.4575 51.7273 34.1343 52.0179 32.7344 52.2959M28.3303 53.1024C26.8555 53.3562 25.3503 53.6044 23.8562 53.8535M19.9764 54.5155C18.5058 54.7758 17.0846 55.0429 15.757 55.3232M11.144 56.5011C9.68851 56.9719 8.54671 57.4886 7.85066 58.0714M8.01806 60.8747C8.66842 61.3534 9.63493 61.7804 10.836 62.1689M14.967 63.212C16.3519 63.4966 17.8552 63.7614 19.422 64.015M23.8387 64.6898C25.2344 64.8949 26.6399 65.0977 28.0214 65.3036M32.1357 65.9488C33.6996 66.2114 35.1783 66.4866 36.5125 66.7837M41.5793 68.4263C42.5005 68.931 43.0244 69.4972 43.0244 70.145C43.0244 70.779 42.5228 71.338 41.6381 71.8399M36.9671 73.4387C35.4811 73.7923 33.7974 74.1163 32.0046 74.4241M28.3005 75.0218C26.8404 75.2463 25.3507 75.4664 23.8717 75.6881M19.2627 76.4041C17.7694 76.6494 16.3359 76.9037 15.01 77.174M10.4772 78.3294C9.56403 78.6367 8.80327 78.9667 8.23555 79.3255" stroke="#171B33" stroke-opacity="0.5" stroke-width="0.97561" stroke-linecap="round" stroke-linejoin="round"/>
<rect x="10.2601" y="75.8655" width="4.87805" height="5.28456" transform="rotate(90 10.2601 75.8655)" fill="#171B33" fill-opacity="0.5"/>
<rect x="9.70034" y="76.4253" width="3.75851" height="4.16501" transform="rotate(90 9.70034 76.4253)" stroke="#171B33" stroke-opacity="0.5" stroke-width="1.11954"/>
<rect x="10.2601" y="0.743652" width="4.87805" height="5.28456" transform="rotate(90 10.2601 0.743652)" fill="#171B33" fill-opacity="0.5"/>
<rect x="9.70034" y="1.30342" width="3.75851" height="4.16501" transform="rotate(90 9.70034 1.30342)" stroke="#171B33" stroke-opacity="0.5" stroke-width="1.11954"/>
<rect x="10.2601" y="64.1582" width="4.87805" height="5.28456" transform="rotate(90 10.2601 64.1582)" fill="#FF2C2F"/>
<rect x="10.2601" y="13.4268" width="4.87805" height="5.28456" transform="rotate(90 10.2601 13.4268)" fill="#FF2C2F"/>
</svg>
