<svg width="49" height="65" viewBox="0 0 49 65" fill="none" xmlns="http://www.w3.org/2000/svg">
<path d="M13.1484 38.0993L13.1484 60.3521L45.4149 60.352L45.4149 38.0993L13.1484 38.0993Z" stroke="#171B33" stroke-opacity="0.5" stroke-width="0.96999" stroke-linecap="round" stroke-linejoin="round" stroke-dasharray="1.94 1.94"/>
<path d="M3.83203 3.19064L3.83203 52.1118L36.6895 52.1118L36.6895 3.19063L3.83203 3.19064Z" stroke="#171B33" stroke-opacity="0.5" stroke-width="0.96999" stroke-linecap="round" stroke-linejoin="round"/>
<path d="M8.94036 36.0482C7.73058 36.0482 6.74986 37.0289 6.74986 38.2387C6.74986 39.4485 7.73058 40.4292 8.94036 40.4292C10.1501 40.4292 11.1309 39.4485 11.1309 38.2387C11.1309 37.0289 10.1501 36.0482 8.94036 36.0482Z" stroke="white" stroke-width="0.730167"/>
<path d="M36.6892 50.4691C35.7818 50.4691 35.0463 51.2047 35.0463 52.112C35.0463 53.0193 35.7818 53.7549 36.6892 53.7549C37.5965 53.7549 38.332 53.0193 38.332 52.112C38.332 51.2047 37.5965 50.4691 36.6892 50.4691Z" fill="#292929" stroke="white" stroke-width="1.09525"/>
<path d="M36.6865 49.9212C35.4767 49.9212 34.496 50.902 34.496 52.1117C34.496 53.3215 35.4767 54.3022 36.6865 54.3022C37.8962 54.3022 38.877 53.3215 38.877 52.1117C38.877 50.902 37.8962 49.9212 36.6865 49.9212Z" stroke="white" stroke-width="0.730167"/>
<path d="M3.83098 0.999858C2.6212 0.999858 1.64048 1.98058 1.64048 3.19036C1.64048 4.40014 2.6212 5.38086 3.83098 5.38086C5.04076 5.38086 6.02148 4.40014 6.02148 3.19036C6.02148 1.98058 5.04076 0.999858 3.83098 0.999858Z" stroke="white" stroke-width="0.730167"/>
<path d="M48.1973 63.1338L42.6338 63.1338L42.6338 57.5703L48.1973 57.5703L48.1973 63.1338Z" fill="#171B33" stroke="white" stroke-width="1.11264"/>
<path d="M7.03125 6.38965L1.46777 6.38965L1.46777 0.826172L7.03125 0.826172L7.03125 6.38965Z" fill="#171B33" stroke="white" stroke-width="1.11264"/>
<path d="M39.2949 54.2329L33.7314 54.2329L33.7314 48.6694L39.2949 48.6694L39.2949 54.2329Z" fill="#171B33" stroke="white" stroke-width="1.11264"/>
<rect x="15.373" y="35.8745" width="4.45054" height="4.45054" transform="rotate(90 15.373 35.8745)" fill="#FF2C2F"/>
</svg>
