<svg width="49" height="82" viewBox="0 0 49 82" fill="none" xmlns="http://www.w3.org/2000/svg">
<path d="M16.1109 77.1427C20.2204 77.1427 23.5517 73.8114 23.5517 69.702C23.5517 65.5926 20.2204 62.2612 16.1109 62.2612C12.0015 62.2612 8.67021 65.5926 8.67021 69.702C8.67021 73.8114 12.0015 77.1427 16.1109 77.1427Z" stroke="#171B33" stroke-opacity="0.5" stroke-width="1.02128" stroke-linecap="round" stroke-linejoin="round"/>
<path d="M37.193 62.2614C41.3024 62.2614 44.6337 58.93 44.6337 54.8206C44.6337 50.7112 41.3024 47.3799 37.193 47.3799C33.0836 47.3799 29.7523 50.7112 29.7523 54.8206C29.7523 58.93 33.0836 62.2614 37.193 62.2614Z" stroke="#171B33" stroke-opacity="0.5" stroke-width="1.02128" stroke-linecap="round" stroke-linejoin="round"/>
<rect x="11.734" y="65.7629" width="8.17021" height="8.17021" fill="white"/>
<rect x="33.1808" y="50.4436" width="8.17021" height="8.17021" fill="white"/>
<rect x="13.7766" y="67.8054" width="4.08511" height="4.08511" fill="#171B33" fill-opacity="0.5"/>
<rect x="35.2234" y="52.4863" width="4.08511" height="4.08511" fill="#171B33" fill-opacity="0.5"/>
<path d="M23.9164 41.1063C34.8748 41.1063 43.7584 32.2227 43.7584 21.2643C43.7584 10.3059 34.8748 1.42236 23.9164 1.42236C12.958 1.42236 4.07446 10.3059 4.07446 21.2643C4.07446 32.2227 12.958 41.1063 23.9164 41.1063Z" stroke="#171B33" stroke-opacity="0.5" stroke-width="1.02128" stroke-linecap="round" stroke-linejoin="round"/>
<rect x="40.3298" y="17.1064" width="8.17021" height="8.17021" fill="white"/>
<rect x="0.5" y="17.1064" width="8.17021" height="8.17021" fill="white"/>
<rect x="42.3723" y="19.1489" width="4.08511" height="4.08511" fill="#FF2C2F"/>
<rect x="2.54256" y="19.1489" width="4.08511" height="4.08511" fill="#FF2C2F"/>
<path d="M23.7197 8.93604C19.2588 10.7994 14.7979 15.161 14.7979 20.0884C14.7979 25.0158 19.2588 30.1816 23.7197 33.4712" stroke="#171B33" stroke-opacity="0.5" stroke-width="1.02128" stroke-linecap="round" stroke-linejoin="round"/>
<path d="M23.7197 8.93604C28.1806 10.7994 32.6416 15.161 32.6416 20.0884C32.6416 25.0158 28.1806 30.1816 23.7197 33.4712" stroke="#171B33" stroke-opacity="0.5" stroke-width="1.02128" stroke-linecap="round" stroke-linejoin="round"/>
<path d="M23.7197 27.3997L19.2587 22.9387" stroke="#171B33" stroke-opacity="0.5" stroke-width="1.02128" stroke-linecap="round" stroke-linejoin="round"/>
<path d="M23.7197 20.7095L19.2587 16.2485" stroke="#171B33" stroke-opacity="0.5" stroke-width="1.02128" stroke-linecap="round" stroke-linejoin="round"/>
<path d="M23.7197 27.3997L28.1806 22.9387" stroke="#171B33" stroke-opacity="0.5" stroke-width="1.02128" stroke-linecap="round" stroke-linejoin="round"/>
<path d="M23.7197 20.7095L28.1806 16.2485" stroke="#171B33" stroke-opacity="0.5" stroke-width="1.02128" stroke-linecap="round" stroke-linejoin="round"/>
<path d="M23.7197 8.93604V44.6807" stroke="#171B33" stroke-opacity="0.5" stroke-width="1.02128" stroke-linecap="round" stroke-linejoin="round"/>
</svg>
