<svg width="50" height="50" viewBox="0 0 50 50" fill="none" xmlns="http://www.w3.org/2000/svg">
<rect x="22.3906" y="22.4683" width="4.82435" height="4.82435" fill="#FF2C2F"/>
<path fill-rule="evenodd" clip-rule="evenodd" d="M18.0279 14.749H31.578C32.8987 14.749 33.9692 15.6875 33.9692 16.8451V32.9152C33.9692 34.0728 32.8987 35.0113 31.578 35.0113H18.0279C16.7073 35.0113 15.6367 34.0728 15.6367 32.9152V16.8451C15.6367 15.6875 16.7073 14.749 18.0279 14.749Z" stroke="#C0C0C0" stroke-width="0.723652" stroke-linecap="round" stroke-linejoin="round"/>
<path fill-rule="evenodd" clip-rule="evenodd" d="M12.1465 1H14.2957V4.58208H12.1465V1Z" stroke="#171B33" stroke-opacity="0.25" stroke-width="0.723652" stroke-linecap="round" stroke-linejoin="round"/>
<path fill-rule="evenodd" clip-rule="evenodd" d="M18.0352 1H20.1844V4.58208H18.0352V1Z" stroke="#171B33" stroke-opacity="0.25" stroke-width="0.723652" stroke-linecap="round" stroke-linejoin="round"/>
<path fill-rule="evenodd" clip-rule="evenodd" d="M23.9258 1H26.075V4.58208H23.9258V1Z" stroke="#171B33" stroke-opacity="0.25" stroke-width="0.723652" stroke-linecap="round" stroke-linejoin="round"/>
<path fill-rule="evenodd" clip-rule="evenodd" d="M29.8164 1H31.9657V4.58208H29.8164V1Z" stroke="#171B33" stroke-opacity="0.25" stroke-width="0.723652" stroke-linecap="round" stroke-linejoin="round"/>
<path fill-rule="evenodd" clip-rule="evenodd" d="M35.707 1H37.8563V4.58208H35.707V1Z" stroke="#171B33" stroke-opacity="0.25" stroke-width="0.723652" stroke-linecap="round" stroke-linejoin="round"/>
<path fill-rule="evenodd" clip-rule="evenodd" d="M11.3477 45.418H13.4969V49H11.3477V45.418Z" stroke="#171B33" stroke-opacity="0.25" stroke-width="0.723652" stroke-linecap="round" stroke-linejoin="round"/>
<path fill-rule="evenodd" clip-rule="evenodd" d="M17.6367 45.418H19.786V49H17.6367V45.418Z" stroke="#171B33" stroke-opacity="0.25" stroke-width="0.723652" stroke-linecap="round" stroke-linejoin="round"/>
<path fill-rule="evenodd" clip-rule="evenodd" d="M23.9258 45.418H26.075V49H23.9258V45.418Z" stroke="#171B33" stroke-opacity="0.25" stroke-width="0.723652" stroke-linecap="round" stroke-linejoin="round"/>
<path fill-rule="evenodd" clip-rule="evenodd" d="M30.2148 45.418H32.3641V49H30.2148V45.418Z" stroke="#171B33" stroke-opacity="0.25" stroke-width="0.723652" stroke-linecap="round" stroke-linejoin="round"/>
<path fill-rule="evenodd" clip-rule="evenodd" d="M36.5039 45.418H38.6532V49H36.5039V45.418Z" stroke="#171B33" stroke-opacity="0.25" stroke-width="0.723652" stroke-linecap="round" stroke-linejoin="round"/>
<path fill-rule="evenodd" clip-rule="evenodd" d="M49.0001 11.3481V13.4974H45.418V11.3481H49.0001Z" stroke="#171B33" stroke-opacity="0.25" stroke-width="0.723652" stroke-linecap="round" stroke-linejoin="round"/>
<path fill-rule="evenodd" clip-rule="evenodd" d="M49.0001 17.6362V19.7855H45.418V17.6362H49.0001Z" stroke="#171B33" stroke-opacity="0.25" stroke-width="0.723652" stroke-linecap="round" stroke-linejoin="round"/>
<path fill-rule="evenodd" clip-rule="evenodd" d="M49.0001 23.9248V26.0741H45.418V23.9248H49.0001Z" stroke="#171B33" stroke-opacity="0.25" stroke-width="0.723652" stroke-linecap="round" stroke-linejoin="round"/>
<path fill-rule="evenodd" clip-rule="evenodd" d="M49.0001 30.2139V32.3631H45.418V30.2139H49.0001Z" stroke="#171B33" stroke-opacity="0.25" stroke-width="0.723652" stroke-linecap="round" stroke-linejoin="round"/>
<path fill-rule="evenodd" clip-rule="evenodd" d="M49.0001 36.502V38.6512H45.418V36.502H49.0001Z" stroke="#171B33" stroke-opacity="0.25" stroke-width="0.723652" stroke-linecap="round" stroke-linejoin="round"/>
<path fill-rule="evenodd" clip-rule="evenodd" d="M4.58208 11.3481V13.4974H1V11.3481H4.58208Z" stroke="#171B33" stroke-opacity="0.25" stroke-width="0.723652" stroke-linecap="round" stroke-linejoin="round"/>
<path fill-rule="evenodd" clip-rule="evenodd" d="M4.58208 17.6362V19.7855H1V17.6362H4.58208Z" stroke="#171B33" stroke-opacity="0.25" stroke-width="0.723652" stroke-linecap="round" stroke-linejoin="round"/>
<path fill-rule="evenodd" clip-rule="evenodd" d="M4.58208 23.9248V26.0741H1V23.9248H4.58208Z" stroke="#171B33" stroke-opacity="0.25" stroke-width="0.723652" stroke-linecap="round" stroke-linejoin="round"/>
<path fill-rule="evenodd" clip-rule="evenodd" d="M4.58208 30.2139V32.3631H1V30.2139H4.58208Z" stroke="#171B33" stroke-opacity="0.25" stroke-width="0.723652" stroke-linecap="round" stroke-linejoin="round"/>
<path fill-rule="evenodd" clip-rule="evenodd" d="M4.58208 36.502V38.6512H1V36.502H4.58208Z" stroke="#171B33" stroke-opacity="0.25" stroke-width="0.723652" stroke-linecap="round" stroke-linejoin="round"/>
<path fill-rule="evenodd" clip-rule="evenodd" d="M4.58398 4.58203H45.4197V45.4177H4.58398V4.58203Z" stroke="#171B33" stroke-opacity="0.5" stroke-width="0.964869" stroke-linecap="round" stroke-linejoin="round"/>
<path d="M47.2345 45.1425C47.2345 43.9435 46.2625 42.9716 45.0635 42.9716C43.8645 42.9716 42.8926 43.9435 42.8926 45.1425C42.8926 46.3415 43.8645 47.3135 45.0635 47.3135C46.2625 47.3135 47.2345 46.3415 47.2345 45.1425Z" stroke="white" stroke-width="0.723652"/>
<path d="M6.71105 4.61811C6.71105 3.41912 5.73908 2.44715 4.5401 2.44715C3.34111 2.44715 2.36914 3.41912 2.36914 4.61811C2.36914 5.81709 3.34111 6.78906 4.5401 6.78906C5.73908 6.78906 6.71105 5.81709 6.71105 4.61811Z" stroke="white" stroke-width="0.723652"/>
<rect x="46.5117" y="42.7305" width="3.85948" height="3.85948" transform="rotate(90 46.5117 42.7305)" fill="#171B33"/>
<rect x="6.95117" y="3.1709" width="3.85948" height="3.85948" transform="rotate(90 6.95117 3.1709)" fill="#171B33"/>
</svg>
