<svg width="48" height="48" viewBox="0 0 48 48" fill="none" xmlns="http://www.w3.org/2000/svg">
<g clip-path="url(#clip0_60_21)">
<path d="M32.7872 5.52117C26.4819 2.34537 19.2995 2.68273 13.5234 5.79892" stroke="#171B33" stroke-opacity="0.5" stroke-width="0.78955" stroke-linecap="round" stroke-linejoin="round"/>
<path d="M4.2963 16.0513C0.774055 24.6414 3.6077 34.4535 10.9723 39.9497" stroke="#171B33" stroke-opacity="0.5" stroke-width="0.78955" stroke-linecap="round" stroke-linejoin="round"/>
<path d="M14.0586 41.8564C19.236 44.4642 25.0031 44.7047 30.098 42.9829" stroke="#171B33" stroke-opacity="0.5" stroke-width="0.78955" stroke-linecap="round" stroke-linejoin="round"/>
<path d="M39.6223 36.318C40.4436 35.2861 41.1757 34.1602 41.8017 32.9458C46.2525 24.311 43.8837 14.0106 36.6638 8.04871C36.4978 7.91167 36.3293 7.77692 36.1582 7.64453" stroke="#171B33" stroke-opacity="0.5" stroke-width="0.78955" stroke-linecap="round" stroke-linejoin="round"/>
<path d="M30.4523 0.55127L32.9323 5.6193L27.5215 7.37637" stroke="#171B33" stroke-opacity="0.5" stroke-width="0.78955" stroke-linecap="round" stroke-linejoin="round"/>
<path d="M16.5171 46.8603L14.0371 41.7922L19.4479 40.0352" stroke="#171B33" stroke-opacity="0.5" stroke-width="0.78955" stroke-linecap="round" stroke-linejoin="round"/>
<path d="M23.5097 21.7734C24.9745 21.7734 26.162 20.5996 26.162 19.1516C26.162 17.7036 24.9745 16.5298 23.5097 16.5298C22.0449 16.5298 20.8574 17.7036 20.8574 19.1516C20.8574 20.5996 22.0449 21.7734 23.5097 21.7734Z" stroke="#8B8D99" stroke-width="0.55814" stroke-linecap="round" stroke-linejoin="round"/>
<path d="M23.3474 36.3198C30.129 36.3198 35.6265 30.8855 35.6265 24.1819C35.6265 17.4783 30.129 12.0439 23.3474 12.0439C16.5659 12.0439 11.0684 17.4783 11.0684 24.1819C11.0684 30.8855 16.5659 36.3198 23.3474 36.3198Z" stroke="#8B8D99" stroke-width="0.55814" stroke-linecap="round" stroke-linejoin="round"/>
<path d="M20.2717 29.3429H18.9277V28.032C18.9277 25.498 21.0058 23.4438 23.5692 23.4438C26.1326 23.4438 28.2107 25.498 28.2107 28.032V29.3429H26.9342" stroke="#8B8D99" stroke-width="0.55814" stroke-linecap="round" stroke-linejoin="round"/>
<path d="M9.52161 17.1123C9.22627 17.1887 8.9214 17.2362 8.60887 17.2524C8.36133 17.2652 8.11649 17.258 7.87541 17.2319L7.69531 17.2087" stroke="#8B8D99" stroke-width="0.55814" stroke-linecap="round" stroke-linejoin="round"/>
<path fill-rule="evenodd" clip-rule="evenodd" d="M8.37848 12.9323C9.82665 12.8573 10.9391 11.636 10.8632 10.2044C10.7873 8.77289 9.55181 7.67323 8.10363 7.74825C6.65546 7.82327 5.543 9.04458 5.6189 10.4761C5.69479 11.9076 6.9303 13.0073 8.37848 12.9323Z" stroke="#8B8D99" stroke-width="0.55814" stroke-linecap="round" stroke-linejoin="round"/>
<path d="M9.70819 14.8428C9.70587 15.7105 9.66983 16.4314 9.55052 16.9867L9.52148 17.1119" stroke="#8B8D99" stroke-width="0.55814" stroke-linecap="round" stroke-linejoin="round"/>
<path d="M7.67884 17.202C7.49239 16.6944 7.37926 16.0157 7.28353 15.187L7.26172 14.9932" stroke="#8B8D99" stroke-width="0.55814" stroke-linecap="round" stroke-linejoin="round"/>
<path d="M12.7519 15.5862C12.257 15.3576 11.6915 14.9568 11.0311 14.4378L10.877 14.3159" stroke="#8B8D99" stroke-width="0.55814" stroke-linecap="round" stroke-linejoin="round"/>
<path d="M4.30043 16.0216C4.03794 15.8694 3.78925 15.6905 3.55745 15.4842C3.3728 15.3198 3.20448 15.1431 3.05241 14.9556L2.94141 14.813" stroke="#8B8D99" stroke-width="0.55814" stroke-linecap="round" stroke-linejoin="round"/>
<path d="M13.99 14.2349C13.8358 14.4953 13.6542 14.742 13.4448 14.9719C13.2789 15.154 13.1006 15.32 12.9115 15.4701L12.7676 15.5796" stroke="#8B8D99" stroke-width="0.55814" stroke-linecap="round" stroke-linejoin="round"/>
<path d="M6.01828 14.5791L5.74741 14.8399C5.25857 15.3046 4.8128 15.6923 4.41719 15.9497L4.31055 16.0166" stroke="#8B8D99" stroke-width="0.55814" stroke-linecap="round" stroke-linejoin="round"/>
<path d="M10.8523 14.2905C10.5403 14.4923 10.209 14.6546 9.86588 14.777L9.69336 14.8349" stroke="#8B8D99" stroke-width="0.55814" stroke-linecap="round" stroke-linejoin="round"/>
<path d="M7.26161 14.9603C6.89674 14.8849 6.54639 14.7681 6.21615 14.6148L6.05273 14.5352" stroke="#8B8D99" stroke-width="0.55814" stroke-linecap="round" stroke-linejoin="round"/>
<path d="M12.5 12.501C13.1207 13.1173 13.6127 13.6546 13.9253 14.1324L13.9896 14.2339" stroke="#8B8D99" stroke-width="0.55814" stroke-linecap="round" stroke-linejoin="round"/>
<path d="M2.95117 14.7965C3.16159 14.3521 3.51853 13.845 3.97436 13.2652L4.2103 12.9692" stroke="#8B8D99" stroke-width="0.55814" stroke-linecap="round" stroke-linejoin="round"/>
<path d="M12.9125 11.3076C12.8362 11.6683 12.718 12.0146 12.563 12.3411L12.4824 12.5026" stroke="#8B8D99" stroke-width="0.55814" stroke-linecap="round" stroke-linejoin="round"/>
<path d="M4.23628 12.9181C4.03402 12.612 3.87106 12.287 3.74778 11.9504L3.68945 11.7812" stroke="#8B8D99" stroke-width="0.55814" stroke-linecap="round" stroke-linejoin="round"/>
<path d="M15.1818 10.8979C14.6683 11.0823 13.9817 11.1941 13.1434 11.2887L12.9473 11.3103" stroke="#8B8D99" stroke-width="0.55814" stroke-linecap="round" stroke-linejoin="round"/>
<path d="M3.63821 11.7831L3.26012 11.7782C2.58203 11.7651 1.98947 11.7277 1.52562 11.6332L1.40234 11.606" stroke="#8B8D99" stroke-width="0.55814" stroke-linecap="round" stroke-linejoin="round"/>
<path d="M1.39134 11.6019C1.31456 11.3108 1.26672 11.0105 1.2504 10.7026C1.23739 10.4573 1.24478 10.2147 1.27137 9.9758L1.2949 9.79736" stroke="#8B8D99" stroke-width="0.55814" stroke-linecap="round" stroke-linejoin="round"/>
<path d="M15.0918 9.07617C15.169 9.36812 15.2171 9.66948 15.2335 9.97842C15.2465 10.2231 15.2392 10.4651 15.2127 10.7035L15.1893 10.8815" stroke="#8B8D99" stroke-width="0.55814" stroke-linecap="round" stroke-linejoin="round"/>
<path d="M1.3125 9.7933C1.81805 9.61223 2.49785 9.4993 3.31815 9.40324L3.50992 9.38135" stroke="#8B8D99" stroke-width="0.55814" stroke-linecap="round" stroke-linejoin="round"/>
<path d="M12.7969 8.89062C13.6747 8.89292 14.404 8.92855 14.9657 9.04648L15.0924 9.07518" stroke="#8B8D99" stroke-width="0.55814" stroke-linecap="round" stroke-linejoin="round"/>
<path d="M12.2344 7.75781C12.4385 8.06616 12.6026 8.39364 12.7265 8.73284L12.7845 8.90235" stroke="#8B8D99" stroke-width="0.55814" stroke-linecap="round" stroke-linejoin="round"/>
<path d="M3.56641 9.36578C3.64238 9.00793 3.75961 8.66423 3.91317 8.3401L3.99296 8.17969" stroke="#8B8D99" stroke-width="0.55814" stroke-linecap="round" stroke-linejoin="round"/>
<path d="M13.5487 5.88281C13.3175 6.37207 12.912 6.93106 12.3869 7.5839L12.2637 7.73624" stroke="#8B8D99" stroke-width="0.55814" stroke-linecap="round" stroke-linejoin="round"/>
<path d="M3.95426 8.14221L3.69043 7.87445C3.2203 7.39123 2.82807 6.95058 2.5677 6.55952L2.5 6.4541" stroke="#8B8D99" stroke-width="0.55814" stroke-linecap="round" stroke-linejoin="round"/>
<path d="M9.22656 5.72119C9.58858 5.79629 9.93627 5.91217 10.2642 6.06397L10.4264 6.14284" stroke="#8B8D99" stroke-width="0.55814" stroke-linecap="round" stroke-linejoin="round"/>
<path d="M5.63281 6.38478C5.94252 6.18484 6.27126 6.02376 6.61171 5.9019L6.78288 5.84424" stroke="#8B8D99" stroke-width="0.55814" stroke-linecap="round" stroke-linejoin="round"/>
<path d="M10.4258 6.13122L10.7087 5.85665C11.2171 5.37067 11.6692 4.98218 12.0783 4.72071L12.181 4.65723" stroke="#8B8D99" stroke-width="0.55814" stroke-linecap="round" stroke-linejoin="round"/>
<path d="M3.73438 5.10986C4.18392 5.31787 4.69691 5.6707 5.28344 6.12129L5.58287 6.35452" stroke="#8B8D99" stroke-width="0.55814" stroke-linecap="round" stroke-linejoin="round"/>
<path d="M2.49609 6.4435C2.64998 6.18403 2.83103 5.9382 3.03974 5.70906C3.206 5.52653 3.38477 5.36015 3.57444 5.20983L3.71872 5.1001" stroke="#8B8D99" stroke-width="0.55814" stroke-linecap="round" stroke-linejoin="round"/>
<path d="M12.1816 4.65771C12.4451 4.81017 12.6947 4.98964 12.9273 5.19664C13.1115 5.3606 13.2794 5.53686 13.4312 5.72385L13.542 5.86608" stroke="#8B8D99" stroke-width="0.55814" stroke-linecap="round" stroke-linejoin="round"/>
<path d="M6.78125 5.78878L6.78623 5.41504C6.79947 4.74474 6.83732 4.15899 6.93295 3.70048L6.96049 3.57861" stroke="#8B8D99" stroke-width="0.55814" stroke-linecap="round" stroke-linejoin="round"/>
<path d="M8.79688 3.49072C8.98005 3.99047 9.0943 4.66245 9.19147 5.47332L9.21362 5.66289" stroke="#8B8D99" stroke-width="0.55814" stroke-linecap="round" stroke-linejoin="round"/>
<path d="M6.96484 3.56739C7.25926 3.49148 7.56314 3.4442 7.87462 3.42806C8.12276 3.41521 8.36818 3.42251 8.60983 3.4488L8.79034 3.47205" stroke="#8B8D99" stroke-width="0.55814" stroke-linecap="round" stroke-linejoin="round"/>
<path fill-rule="evenodd" clip-rule="evenodd" d="M34.3441 47.5581C32.0226 47.5581 30.1407 45.7045 30.1407 43.4181V40.4609C30.1407 38.8583 31.0652 37.4685 32.4175 36.7804L32.5609 34.7581L34.7433 36.3214L43.3513 36.3209C45.6728 36.3209 47.5547 38.1744 47.5547 40.4609V43.4181C47.5547 45.7045 45.6728 47.5581 43.3513 47.5581H34.3441Z" stroke="#8B8D99" stroke-width="0.55814" stroke-linecap="round" stroke-linejoin="round"/>
<path d="M43.2373 40.1655H34.1582" stroke="#8B8D99" stroke-width="0.55814" stroke-linecap="round" stroke-linejoin="round"/>
<path d="M43.2373 42.3726H34.1582" stroke="#8B8D99" stroke-width="0.55814" stroke-linecap="round" stroke-linejoin="round"/>
<path d="M38.6233 44.5791H34.1582" stroke="#8B8D99" stroke-width="0.55814" stroke-linecap="round" stroke-linejoin="round"/>
<path d="M27.9074 24.2755C27.9074 23.3614 27.1578 22.6203 26.233 22.6203C25.3083 22.6203 24.5586 23.3614 24.5586 24.2755C24.5586 25.1896 25.3083 25.9307 26.233 25.9307C27.1578 25.9307 27.9074 25.1896 27.9074 24.2755Z" stroke="white" stroke-width="0.55814"/>
<path d="M47.4406 37.5172C47.4406 36.6031 46.691 35.862 45.7662 35.862C44.8415 35.862 44.0918 36.6031 44.0918 37.5172C44.0918 38.4313 44.8415 39.1724 45.7662 39.1724C46.691 39.1724 47.4406 38.4313 47.4406 37.5172Z" stroke="white" stroke-width="0.55814"/>
<path d="M9.88985 10.3287C9.88985 9.41459 9.14019 8.67354 8.21543 8.67354C7.29068 8.67354 6.54102 9.41459 6.54102 10.3287C6.54102 11.2428 7.29068 11.9839 8.21543 11.9839C9.14019 11.9839 9.88985 11.2428 9.88985 10.3287Z" stroke="white" stroke-width="0.55814"/>
<rect x="11.7734" y="37.6001" width="3.581" height="3.62264" transform="rotate(90 11.7734 37.6001)" fill="#171B33"/>
<rect x="38.0371" y="6.2666" width="3.581" height="3.62264" transform="rotate(90 38.0371 6.2666)" fill="#171B33"/>
<rect x="25.3594" y="27.7524" width="3.581" height="3.62264" transform="rotate(90 25.3594 27.7524)" fill="#FF2C2F"/>
</g>
<defs>
<clipPath id="clip0_60_21">
<rect width="48" height="48" fill="white"/>
</clipPath>
</defs>
</svg>
