<svg width="48" height="50" viewBox="0 0 48 50" fill="none" xmlns="http://www.w3.org/2000/svg">
<path d="M23.8449 44.2942C35.6635 44.2942 45.2444 34.7133 45.2444 22.8947C45.2444 11.076 35.6635 1.49512 23.8449 1.49512C12.0262 1.49512 2.44531 11.076 2.44531 22.8947C2.44531 34.7133 12.0262 44.2942 23.8449 44.2942Z" stroke="#171B33" stroke-opacity="0.5" stroke-linecap="round" stroke-linejoin="round"/>
<rect x="31.5" y="6.05811" width="5.55814" height="5.55814" transform="rotate(-90 31.5 6.05811)" fill="#FF2C2F" stroke="white"/>
<rect x="1.5" y="36.96" width="5.55814" height="5.55814" transform="rotate(-90 1.5 36.96)" fill="#FF2C2F" stroke="white"/>
<path d="M23.8461 40.0374C33.3128 40.0374 40.9871 32.3631 40.9871 22.8964C40.9871 13.4297 33.3128 5.75537 23.8461 5.75537C14.3794 5.75537 6.70508 13.4297 6.70508 22.8964C6.70508 32.3631 14.3794 40.0374 23.8461 40.0374Z" stroke="#171B33" stroke-opacity="0.5" stroke-linecap="round" stroke-linejoin="round"/>
<path d="M16.5664 13.0996C20.1636 13.0996 23.2288 13.0996 25.7619 13.0996C29.5616 13.0996 31.2872 15.739 31.2872 17.7463C31.2872 19.7536 29.9666 22.5553 25.5686 22.5553C22.6365 22.5553 20.6267 22.5553 19.5391 22.5553" stroke="#171B33" stroke-opacity="0.5" stroke-linecap="round" stroke-linejoin="round"/>
<path d="M16.5664 32.9214C20.3865 32.9214 23.6415 32.9214 26.3316 32.9214C30.3667 32.9214 32.1993 30.0228 32.1993 27.8183C32.1993 25.6139 30.7969 22.537 26.1263 22.537C23.0126 22.537 20.8783 22.537 19.7233 22.537" stroke="#171B33" stroke-opacity="0.5" stroke-linecap="round" stroke-linejoin="round"/>
<path d="M19.6152 32.8865V13.1265" stroke="#171B33" stroke-opacity="0.5" stroke-linecap="round" stroke-linejoin="round"/>
<path d="M21.4121 12.9079V9.3252" stroke="#171B33" stroke-opacity="0.5" stroke-linecap="round" stroke-linejoin="round"/>
<path d="M21.4121 36.5041V32.9214" stroke="#171B33" stroke-opacity="0.5" stroke-linecap="round" stroke-linejoin="round"/>
<path d="M25.4551 12.9079V9.3252" stroke="#171B33" stroke-opacity="0.5" stroke-linecap="round" stroke-linejoin="round"/>
<path d="M25.4551 36.5041V32.9214" stroke="#171B33" stroke-opacity="0.5" stroke-linecap="round" stroke-linejoin="round"/>
<rect x="36.8262" y="49.4951" width="5.55814" height="5.55814" transform="rotate(-90 36.8262 49.4951)" fill="#FF2C2F" stroke="white"/>
</svg>
