<svg width="50" height="58" viewBox="0 0 50 58" fill="none" xmlns="http://www.w3.org/2000/svg">
<path d="M3.52148 54.4155L24.6033 33.446" stroke="#171B33" stroke-opacity="0.5" stroke-width="1.01397" stroke-linecap="round" stroke-linejoin="round"/>
<path d="M3.52148 39.3369L24.6033 18.3674" stroke="#171B33" stroke-opacity="0.5" stroke-width="1.01397" stroke-linecap="round" stroke-linejoin="round"/>
<path d="M45.6582 54.4155L24.5764 33.446" stroke="#171B33" stroke-opacity="0.5" stroke-width="1.01397" stroke-linecap="round" stroke-linejoin="round"/>
<path d="M45.6582 39.3369L24.5764 18.3674" stroke="#171B33" stroke-opacity="0.5" stroke-width="1.01397" stroke-linecap="round" stroke-linejoin="round"/>
<path d="M3.52148 24.2617L24.6033 3.29218" stroke="#171B33" stroke-opacity="0.5" stroke-width="1.01397" stroke-linecap="round" stroke-linejoin="round"/>
<path d="M45.6582 24.2617L24.5764 3.29218" stroke="#171B33" stroke-opacity="0.5" stroke-width="1.01397" stroke-linecap="round" stroke-linejoin="round"/>
<path d="M5.42037 54.4176C5.42037 53.3767 4.57206 52.5329 3.52561 52.5329C2.47917 52.5329 1.63086 53.3767 1.63086 54.4176C1.63086 55.4585 2.47917 56.3022 3.52561 56.3022C4.57206 56.3022 5.42037 55.4585 5.42037 54.4176Z" fill="#171B33" stroke="white" stroke-width="1.52096"/>
<path d="M6.05268 54.4178C6.05268 53.0299 4.9216 51.9049 3.52634 51.9049C2.13108 51.9049 1 53.0299 1 54.4178C1 55.8056 2.13108 56.9307 3.52634 56.9307C4.9216 56.9307 6.05268 55.8056 6.05268 54.4178Z" stroke="white" stroke-width="1.01397"/>
<path d="M48.3676 54.4176C48.3676 53.3767 47.5193 52.5329 46.4729 52.5329C45.4264 52.5329 44.5781 53.3767 44.5781 54.4176C44.5781 55.4585 45.4264 56.3022 46.4729 56.3022C47.5193 56.3022 48.3676 55.4585 48.3676 54.4176Z" fill="#171B33" stroke="white" stroke-width="1.52096"/>
<path d="M48.9999 54.4178C48.9999 53.0299 47.8689 51.9049 46.4736 51.9049C45.0783 51.9049 43.9473 53.0299 43.9473 54.4178C43.9473 55.8056 45.0783 56.9307 46.4736 56.9307C47.8689 56.9307 48.9999 55.8056 48.9999 54.4178Z" stroke="white" stroke-width="1.01397"/>
<path d="M5.42037 39.339C5.42037 38.2981 4.57206 37.4543 3.52561 37.4543C2.47917 37.4543 1.63086 38.2981 1.63086 39.339C1.63086 40.3798 2.47917 41.2236 3.52561 41.2236C4.57206 41.2236 5.42037 40.3798 5.42037 39.339Z" fill="#171B33" stroke="white" stroke-width="1.52096"/>
<path d="M6.05268 39.3392C6.05268 37.9513 4.9216 36.8263 3.52634 36.8263C2.13108 36.8263 1 37.9513 1 39.3392C1 40.727 2.13108 41.8521 3.52634 41.8521C4.9216 41.8521 6.05268 40.727 6.05268 39.3392Z" stroke="white" stroke-width="1.01397"/>
<path d="M48.3676 39.339C48.3676 38.2981 47.5193 37.4543 46.4729 37.4543C45.4264 37.4543 44.5781 38.2981 44.5781 39.339C44.5781 40.3798 45.4264 41.2236 46.4729 41.2236C47.5193 41.2236 48.3676 40.3798 48.3676 39.339Z" fill="#171B33" stroke="white" stroke-width="1.52096"/>
<path d="M48.9999 39.3392C48.9999 37.9513 47.8689 36.8263 46.4736 36.8263C45.0783 36.8263 43.9473 37.9513 43.9473 39.3392C43.9473 40.727 45.0783 41.8521 46.4736 41.8521C47.8689 41.8521 48.9999 40.727 48.9999 39.3392Z" stroke="white" stroke-width="1.01397"/>
<path d="M5.42037 24.2599C5.42037 23.219 4.57206 22.3752 3.52561 22.3752C2.47917 22.3752 1.63086 23.219 1.63086 24.2599C1.63086 25.3007 2.47917 26.1445 3.52561 26.1445C4.57206 26.1445 5.42037 25.3007 5.42037 24.2599Z" fill="#171B33" stroke="white" stroke-width="1.52096"/>
<path d="M6.05268 24.2601C6.05268 22.8722 4.9216 21.7472 3.52634 21.7472C2.13108 21.7472 1 22.8722 1 24.2601C1 25.6479 2.13108 26.7729 3.52634 26.7729C4.9216 26.7729 6.05268 25.6479 6.05268 24.2601Z" stroke="white" stroke-width="1.01397"/>
<path d="M48.3676 24.2599C48.3676 23.219 47.5193 22.3752 46.4729 22.3752C45.4264 22.3752 44.5781 23.219 44.5781 24.2599C44.5781 25.3007 45.4264 26.1445 46.4729 26.1445C47.5193 26.1445 48.3676 25.3007 48.3676 24.2599Z" fill="#171B33" stroke="white" stroke-width="1.52096"/>
<path d="M48.9999 24.2601C48.9999 22.8722 47.8689 21.7472 46.4736 21.7472C45.0783 21.7472 43.9473 22.8722 43.9473 24.2601C43.9473 25.6479 45.0783 26.7729 46.4736 26.7729C47.8689 26.7729 48.9999 25.6479 48.9999 24.2601Z" stroke="white" stroke-width="1.01397"/>
<rect x="21.9559" y="22.339" width="5.63581" height="5.63581" transform="rotate(-90 21.9559 22.339)" fill="#FF2C2F" stroke="white" stroke-width="1.01397"/>
<rect x="21.9559" y="38.5622" width="5.63581" height="5.63581" transform="rotate(-90 21.9559 38.5622)" fill="#171B33" stroke="white" stroke-width="1.01397"/>
<rect x="21.9559" y="7.12906" width="5.63581" height="5.63581" transform="rotate(-90 21.9559 7.12906)" fill="#171B33" stroke="white" stroke-width="1.01397"/>
</svg>
