<svg width="81" height="81" viewBox="0 0 81 81" fill="none" xmlns="http://www.w3.org/2000/svg">
<rect x="38.3054" y="65.3113" width="3.17894" height="3.17894" fill="black" stroke="black" stroke-width="0.946909"/>
<rect x="38.3054" y="6.72443" width="3.17894" height="3.17894" fill="black" stroke="black" stroke-width="0.946909"/>
<rect x="37.832" y="35.1323" width="4.12585" height="4.12585" fill="#2D4CFF"/>
<rect x="8.95102" y="35.1323" width="4.12585" height="4.12585" fill="#2D4CFF"/>
<rect x="66.7129" y="35.1323" width="4.12585" height="4.12585" fill="#2D4CFF"/>
<path fill-rule="evenodd" clip-rule="evenodd" d="M32.0558 37.1743L39.8742 29.3559L47.6925 37.1743L39.8742 44.9927L32.0558 37.1743Z" stroke="#3F3F3F" stroke-width="0.82517" stroke-linecap="round" stroke-linejoin="round"/>
<path d="M44.9405 40.1987L47.6925 42.9507L39.8742 50.7691L32.0558 42.9507L34.833 40.1735" stroke="#3F3F3F" stroke-width="0.82517" stroke-linecap="round" stroke-linejoin="round"/>
<path fill-rule="evenodd" clip-rule="evenodd" d="M32.0558 8.29346L39.8742 0.475078L47.6925 8.29346L39.8742 16.1118L32.0558 8.29346Z" stroke="#3F3F3F" stroke-width="0.82517" stroke-linecap="round" stroke-linejoin="round"/>
<path d="M44.9405 11.3178L47.6925 14.0698L39.8742 21.8882L32.0558 14.0698L34.833 11.2926" stroke="#3F3F3F" stroke-width="0.82517" stroke-linecap="round" stroke-linejoin="round"/>
<path fill-rule="evenodd" clip-rule="evenodd" d="M32.0558 66.8804L39.8742 59.062L47.6925 66.8804L39.8742 74.6988L32.0558 66.8804Z" stroke="#3F3F3F" stroke-width="0.82517" stroke-linecap="round" stroke-linejoin="round"/>
<path d="M44.9405 69.9043L47.6925 72.6563L39.8742 80.4746L32.0558 72.6562L34.833 69.8791" stroke="#3F3F3F" stroke-width="0.82517" stroke-linecap="round" stroke-linejoin="round"/>
<path fill-rule="evenodd" clip-rule="evenodd" d="M4.00003 37.1743L11.8184 29.3559L19.6368 37.1743L11.8184 44.9927L4.00003 37.1743Z" stroke="#3F3F3F" stroke-width="0.82517" stroke-linecap="round" stroke-linejoin="round"/>
<path d="M16.8848 40.1987L19.6368 42.9507L11.8184 50.7691L4.00003 42.9507L6.77722 40.1735" stroke="#3F3F3F" stroke-width="0.82517" stroke-linecap="round" stroke-linejoin="round"/>
<path fill-rule="evenodd" clip-rule="evenodd" d="M18.0279 52.0278L25.8463 44.2095L33.6647 52.0278L25.8463 59.8462L18.0279 52.0278Z" stroke="#3F3F3F" stroke-width="0.82517" stroke-linecap="round" stroke-linejoin="round"/>
<path d="M30.9127 55.0517L33.6647 57.8037L25.8463 65.6221L18.0279 57.8037L20.8051 55.0265" stroke="#3F3F3F" stroke-width="0.82517" stroke-linecap="round" stroke-linejoin="round"/>
<path fill-rule="evenodd" clip-rule="evenodd" d="M46.0837 52.0278L53.9021 44.2095L61.7204 52.0278L53.9021 59.8462L46.0837 52.0278Z" stroke="#3F3F3F" stroke-width="0.82517" stroke-linecap="round" stroke-linejoin="round"/>
<path d="M58.9684 55.0517L61.7204 57.8037L53.9021 65.6221L46.0837 57.8037L48.8609 55.0265" stroke="#3F3F3F" stroke-width="0.82517" stroke-linecap="round" stroke-linejoin="round"/>
<path fill-rule="evenodd" clip-rule="evenodd" d="M18.0279 22.3213L25.8463 14.5029L33.6647 22.3213L25.8463 30.1397L18.0279 22.3213Z" stroke="#3F3F3F" stroke-width="0.82517" stroke-linecap="round" stroke-linejoin="round"/>
<path d="M30.9127 25.3457L33.6647 28.0977L25.8463 35.916L18.0279 28.0977L20.8051 25.3205" stroke="#3F3F3F" stroke-width="0.82517" stroke-linecap="round" stroke-linejoin="round"/>
<path fill-rule="evenodd" clip-rule="evenodd" d="M46.0837 22.3213L53.9021 14.5029L61.7204 22.3213L53.9021 30.1397L46.0837 22.3213Z" stroke="#3F3F3F" stroke-width="0.82517" stroke-linecap="round" stroke-linejoin="round"/>
<path d="M58.9684 25.3457L61.7204 28.0977L53.9021 35.916L46.0837 28.0977L48.8609 25.3205" stroke="#3F3F3F" stroke-width="0.82517" stroke-linecap="round" stroke-linejoin="round"/>
<path fill-rule="evenodd" clip-rule="evenodd" d="M60.1116 37.1743L67.93 29.3559L75.7483 37.1743L67.93 44.9927L60.1116 37.1743Z" stroke="#3F3F3F" stroke-width="0.82517" stroke-linecap="round" stroke-linejoin="round"/>
<path d="M72.9963 40.1987L75.7483 42.9507L67.93 50.7691L60.1116 42.9507L62.8888 40.1735" stroke="#3F3F3F" stroke-width="0.82517" stroke-linecap="round" stroke-linejoin="round"/>
</svg>
