<svg width="81" height="81" viewBox="0 0 81 81" fill="none" xmlns="http://www.w3.org/2000/svg">
<path d="M55.5495 68.077C50.2695 59.3083 46.3791 51.7083 43.8784 45.2769C40.1274 35.6299 38.7621 11.499 30.2915 11.499C21.8209 11.499 20.2577 36.1389 16.7046 45.2769C14.3359 51.3689 10.4455 58.9689 5.03348 68.077" stroke="black" stroke-width="0.757742" stroke-linecap="round" stroke-linejoin="round"/>
<path d="M78.8125 68.4536C75.6326 65.9966 72.3075 63.565 68.8372 61.159C63.6318 57.5499 53.7378 40.4971 41.405 40.4971C29.0723 40.4971 19.8334 57.695 14.9704 61.159C11.7284 63.4683 8.40329 65.8999 4.99506 68.4536" stroke="black" stroke-width="0.757742" stroke-linecap="round" stroke-linejoin="round"/>
<path d="M3 49.8906H79" stroke="black" stroke-width="0.585345"/>
<path d="M3 68.0381H79" stroke="black" stroke-width="0.585345"/>
<path d="M3.00003 18.5781H79" stroke="black" stroke-width="0.585345"/>
<path d="M3 33.5273H79" stroke="black" stroke-width="0.585345"/>
<path d="M46.9472 36.1255V46.3403H36.7323V36.1255H46.9472Z" fill="#2D4CFF" stroke="#F5F6FC" stroke-width="0.757742"/>
</svg>
