<svg width="952" height="415" viewBox="0 0 952 415" fill="none" xmlns="http://www.w3.org/2000/svg">
<g clip-path="url(#clip0_64_2)">
<mask id="mask0_64_2" style="mask-type:alpha" maskUnits="userSpaceOnUse" x="-1" y="0" width="953" height="415">
<path d="M-0.000671387 2.79304e-07L951.57 0L951.57 414.809L-0.000684082 414.809L-0.000671387 2.79304e-07Z" fill="#2D4CFF"/>
</mask>
<g mask="url(#mask0_64_2)">
<g opacity="0.65">
<path opacity="0.1" d="M797.282 428.559L697.285 -13.752" stroke="#E5E9F2" stroke-width="0.954434"/>
<path opacity="0.1" d="M810.67 428.559L710.674 -13.752" stroke="#E5E9F2" stroke-width="0.954434"/>
<path opacity="0.1" d="M823.64 428.559L723.644 -13.752" stroke="#E5E9F2" stroke-width="0.954434"/>
<path opacity="0.1" d="M836.611 428.559L736.615 -13.752" stroke="#E5E9F2" stroke-width="0.954434"/>
<path opacity="0.1" d="M850 428.559L750.003 -13.752" stroke="#E5E9F2" stroke-width="0.954434"/>
<path opacity="0.1" d="M862.969 428.559L762.973 -13.752" stroke="#E5E9F2" stroke-width="0.954434"/>
<path opacity="0.1" d="M875.94 428.559L775.944 -13.752" stroke="#E5E9F2" stroke-width="0.954434"/>
<path opacity="0.1" d="M888.91 428.559L788.914 -13.752" stroke="#E5E9F2" stroke-width="0.954434"/>
<path opacity="0.1" d="M902.299 428.559L802.302 -13.752" stroke="#E5E9F2" stroke-width="0.954434"/>
<path opacity="0.1" d="M915.269 428.559L815.273 -13.752" stroke="#E5E9F2" stroke-width="0.954434"/>
<path opacity="0.1" d="M928.239 428.559L828.243 -13.752" stroke="#E5E9F2" stroke-width="0.954434"/>
<path opacity="0.1" d="M941.209 428.559L841.213 -13.752" stroke="#E5E9F2" stroke-width="0.954434"/>
<path opacity="0.1" d="M954.598 428.559L854.602 -13.752" stroke="#E5E9F2" stroke-width="0.954434"/>
<path opacity="0.1" d="M967.568 428.559L867.572 -13.752" stroke="#E5E9F2" stroke-width="0.954434"/>
<path opacity="0.1" d="M980.538 428.559L880.542 -13.752" stroke="#E5E9F2" stroke-width="0.954434"/>
<path opacity="0.1" d="M993.509 428.559L893.513 -13.752" stroke="#E5E9F2" stroke-width="0.954434"/>
<path opacity="0.1" d="M1006.9 428.559L906.901 -13.752" stroke="#E5E9F2" stroke-width="0.954434"/>
<path opacity="0.1" d="M1019.87 428.559L919.871 -13.752" stroke="#E5E9F2" stroke-width="0.954434"/>
<path opacity="0.1" d="M1032.84 428.559L932.842 -13.752" stroke="#E5E9F2" stroke-width="0.954434"/>
<path opacity="0.1" d="M1045.81 428.559L945.812 -13.752" stroke="#E5E9F2" stroke-width="0.954434"/>
<path opacity="0.1" d="M484.322 428.559L384.326 -13.752" stroke="#E5E9F2" stroke-width="0.954434"/>
<path opacity="0.1" d="M498.129 428.559L397.715 -13.752" stroke="#E5E9F2" stroke-width="0.954434"/>
<path opacity="0.1" d="M511.1 428.559L411.103 -13.752" stroke="#E5E9F2" stroke-width="0.954434"/>
<path opacity="0.1" d="M524.07 428.559L424.073 -13.752" stroke="#E5E9F2" stroke-width="0.954434"/>
<path opacity="0.1" d="M537.04 428.559L437.044 -13.752" stroke="#E5E9F2" stroke-width="0.954434"/>
<path opacity="0.1" d="M550.429 428.559L450.014 -13.752" stroke="#E5E9F2" stroke-width="0.954434"/>
<path opacity="0.1" d="M563.399 428.559L463.403 -13.752" stroke="#E5E9F2" stroke-width="0.954434"/>
<path opacity="0.1" d="M576.369 428.559L476.373 -13.752" stroke="#E5E9F2" stroke-width="0.954434"/>
<path opacity="0.1" d="M589.339 428.559L489.343 -13.752" stroke="#E5E9F2" stroke-width="0.954434"/>
<path opacity="0.1" d="M602.728 428.559L502.314 -13.752" stroke="#E5E9F2" stroke-width="0.954434"/>
<path opacity="0.1" d="M615.698 428.559L515.702 -13.752" stroke="#E5E9F2" stroke-width="0.954434"/>
<path opacity="0.1" d="M628.668 428.559L528.672 -13.752" stroke="#E5E9F2" stroke-width="0.954434"/>
<path opacity="0.1" d="M641.639 428.559L541.642 -13.752" stroke="#E5E9F2" stroke-width="0.954434"/>
<path opacity="0.1" d="M655.027 428.559L554.613 -13.752" stroke="#E5E9F2" stroke-width="0.954434"/>
<path opacity="0.1" d="M667.998 428.559L568.001 -13.752" stroke="#E5E9F2" stroke-width="0.954434"/>
<path opacity="0.1" d="M680.968 428.559L580.971 -13.752" stroke="#E5E9F2" stroke-width="0.954434"/>
<path opacity="0.1" d="M693.938 428.559L593.942 -13.752" stroke="#E5E9F2" stroke-width="0.954434"/>
<path opacity="0.1" d="M707.327 428.559L606.912 -13.752" stroke="#E5E9F2" stroke-width="0.954434"/>
<path opacity="0.1" d="M720.297 428.559L620.301 -13.752" stroke="#E5E9F2" stroke-width="0.954434"/>
<path opacity="0.1" d="M733.268 428.559L633.271 -13.752" stroke="#E5E9F2" stroke-width="0.954434"/>
<path opacity="0.1" d="M746.238 428.559L646.241 -13.752" stroke="#E5E9F2" stroke-width="0.954434"/>
<path opacity="0.1" d="M759.626 428.559L659.211 -13.752" stroke="#E5E9F2" stroke-width="0.954434"/>
<path opacity="0.1" d="M772.596 428.559L672.6 -13.752" stroke="#E5E9F2" stroke-width="0.954434"/>
<path opacity="0.1" d="M785.567 428.559L685.57 -13.752" stroke="#E5E9F2" stroke-width="0.954434"/>
<path opacity="0.1" d="M170.526 428.559L70.5303 -13.752" stroke="#E5E9F2" stroke-width="0.954434"/>
<path opacity="0.1" d="M183.915 428.559L83.9189 -13.752" stroke="#E5E9F2" stroke-width="0.954434"/>
<path opacity="0.1" d="M196.885 428.559L96.8887 -13.752" stroke="#E5E9F2" stroke-width="0.954434"/>
<path opacity="0.1" d="M210.274 428.559L109.859 -13.752" stroke="#E5E9F2" stroke-width="0.954434"/>
<path opacity="0.1" d="M223.244 428.559L123.248 -13.752" stroke="#E5E9F2" stroke-width="0.954434"/>
<path opacity="0.1" d="M236.214 428.559L136.218 -13.752" stroke="#E5E9F2" stroke-width="0.954434"/>
<path opacity="0.1" d="M249.184 428.559L149.188 -13.752" stroke="#E5E9F2" stroke-width="0.954434"/>
<path opacity="0.1" d="M262.573 428.559L162.159 -13.752" stroke="#E5E9F2" stroke-width="0.954434"/>
<path opacity="0.1" d="M275.543 428.559L175.547 -13.752" stroke="#E5E9F2" stroke-width="0.954434"/>
<path opacity="0.1" d="M288.514 428.559L188.517 -13.752" stroke="#E5E9F2" stroke-width="0.954434"/>
<path opacity="0.1" d="M301.484 428.559L201.488 -13.752" stroke="#E5E9F2" stroke-width="0.954434"/>
<path opacity="0.1" d="M314.873 428.559L214.458 -13.752" stroke="#E5E9F2" stroke-width="0.954434"/>
<path opacity="0.1" d="M327.843 428.559L227.846 -13.752" stroke="#E5E9F2" stroke-width="0.954434"/>
<path opacity="0.1" d="M340.813 428.559L240.817 -13.752" stroke="#E5E9F2" stroke-width="0.954434"/>
<path opacity="0.1" d="M353.783 428.559L253.787 -13.752" stroke="#E5E9F2" stroke-width="0.954434"/>
<path opacity="0.1" d="M367.172 428.559L266.757 -13.752" stroke="#E5E9F2" stroke-width="0.954434"/>
<path opacity="0.1" d="M380.142 428.559L280.146 -13.752" stroke="#E5E9F2" stroke-width="0.954434"/>
<path opacity="0.1" d="M393.113 428.559L293.116 -13.752" stroke="#E5E9F2" stroke-width="0.954434"/>
<path opacity="0.1" d="M406.083 428.559L306.086 -13.752" stroke="#E5E9F2" stroke-width="0.954434"/>
<path opacity="0.1" d="M419.471 428.559L319.056 -13.752" stroke="#E5E9F2" stroke-width="0.954434"/>
<path opacity="0.1" d="M432.441 428.559L332.445 -13.752" stroke="#E5E9F2" stroke-width="0.954434"/>
<path opacity="0.1" d="M445.412 428.559L345.415 -13.752" stroke="#E5E9F2" stroke-width="0.954434"/>
<path opacity="0.1" d="M458.382 428.559L358.385 -13.752" stroke="#E5E9F2" stroke-width="0.954434"/>
<path opacity="0.1" d="M471.771 428.559L371.356 -13.752" stroke="#E5E9F2" stroke-width="0.954434"/>
<path opacity="0.1" d="M1.91332 428.559L-98.083 -13.752" stroke="#E5E9F2" stroke-width="0.954434"/>
<path opacity="0.1" d="M14.883 428.559L-85.1133 -13.752" stroke="#E5E9F2" stroke-width="0.954434"/>
<path opacity="0.1" d="M28.2727 428.559L-71.7236 -13.752" stroke="#E5E9F2" stroke-width="0.954434"/>
<path opacity="0.1" d="M41.2424 428.559L-58.7539 -13.752" stroke="#E5E9F2" stroke-width="0.954434"/>
<path opacity="0.1" d="M54.2121 428.559L-45.7842 -13.752" stroke="#E5E9F2" stroke-width="0.954434"/>
<path opacity="0.1" d="M67.1829 428.559L-32.8135 -13.752" stroke="#E5E9F2" stroke-width="0.954434"/>
<path opacity="0.1" d="M80.5715 428.559L-19.4248 -13.752" stroke="#E5E9F2" stroke-width="0.954434"/>
<path opacity="0.1" d="M93.5412 428.559L-6.45508 -13.752" stroke="#E5E9F2" stroke-width="0.954434"/>
<path opacity="0.1" d="M106.512 428.559L6.51562 -13.752" stroke="#E5E9F2" stroke-width="0.954434"/>
<path opacity="0.1" d="M119.482 428.559L19.4863 -13.752" stroke="#E5E9F2" stroke-width="0.954434"/>
<path opacity="0.1" d="M132.871 428.559L32.874 -13.752" stroke="#E5E9F2" stroke-width="0.954434"/>
<path opacity="0.1" d="M145.841 428.559L45.8447 -13.752" stroke="#E5E9F2" stroke-width="0.954434"/>
<path opacity="0.1" d="M158.812 428.559L58.8154 -13.752" stroke="#E5E9F2" stroke-width="0.954434"/>
</g>
</g>
</g>
<defs>
<clipPath id="clip0_64_2">
<rect width="952" height="415" fill="white"/>
</clipPath>
</defs>
</svg>
