<svg width="2588" height="109" viewBox="0 0 2588 109" fill="none" xmlns="http://www.w3.org/2000/svg">
<g clip-path="url(#clip0_130_235)">
<path opacity="0.1" d="M2353.73 109.292L2246.45 -0.43434M1004.81 109.292L897.534 -0.43434M2368.63 109.292L2260.36 -0.43434M1019.71 109.292L911.441 -0.43434M2381.54 109.292L2274.26 -0.43434M1032.62 109.292L925.346 -0.43434M2396.44 109.292L2288.17 -0.43434M1047.52 109.292L939.254 -0.43434M2410.35 109.292L2302.08 -0.43434M1061.43 109.292L953.159 -0.43434M2424.25 109.292L2316.97 -0.43434M1075.34 109.292L968.061 -0.43434M2438.16 109.292L2330.88 -0.43434M1089.24 109.292L981.966 -0.43434M2452.07 109.292L2344.79 -0.43434M1103.15 109.292L995.872 -0.43434M2466.97 109.292L2359.69 -0.43434M1118.05 109.292L1010.77 -0.43434M2479.88 109.292L2373.59 -0.43434M1130.96 109.292L1024.68 -0.43434M2494.78 109.292L2387.5 -0.43434M1145.86 109.292L1038.58 -0.43434M2508.68 109.292L2400.41 -0.43434M1159.77 109.292L1051.5 -0.43434M2522.59 109.292L2415.31 -0.43434M1173.67 109.292L1066.4 -0.43434M2536.5 109.292L2429.22 -0.43434M1187.58 109.292L1080.3 -0.43434M2550.4 109.292L2443.13 -0.43434M1201.49 109.292L1094.21 -0.43434M2565.3 109.292L2457.03 -0.43434M1216.39 109.292L1108.12 -0.43434M2579.21 109.292L2471.93 -0.43434M1230.29 109.292L1123.02 -0.43434M2593.12 109.292L2485.84 -0.43434M1244.2 109.292L1136.92 -0.43434M2607.02 109.292L2499.74 -0.43434M1258.11 109.292L1150.83 -0.43434M2620.93 109.292L2513.65 -0.43434M1272.01 109.292L1164.74 -0.43434M2635.83 109.292L2528.55 -0.43434M1286.91 109.292L1179.63 -0.43434M2649.74 109.292L2541.46 -0.43434M1300.82 109.292L1192.55 -0.43434M2663.64 109.292L2556.36 -0.43434M1314.72 109.292L1207.45 -0.43434M2677.55 109.292L2570.27 -0.43457M1328.63 109.292L1221.35 -0.43434M2017 109.292L1909.72 -0.43434M668.08 109.292L560.802 -0.43434M2030.9 109.292L1923.62 -0.43434M681.987 109.292L574.709 -0.43434M2045.8 109.292L1938.52 -0.43434M696.886 109.292L589.609 -0.43434M2059.71 109.292L1951.44 -0.43434M710.792 109.292L602.521 -0.43434M2073.61 109.292L1966.34 -0.43434M724.698 109.292L617.421 -0.43434M2087.52 109.292L1980.24 -0.43434M738.605 109.292L631.327 -0.43434M2101.43 109.292L1994.15 -0.43434M752.511 109.292L645.233 -0.43434M2116.33 109.292L2008.06 -0.43434M767.41 109.292L659.139 -0.43434M2130.23 109.292L2021.96 -0.43434M781.316 109.292L673.045 -0.43434M2144.14 109.292L2036.86 -0.43434M795.225 109.292L687.948 -0.43434M2158.04 109.292L2050.77 -0.43434M809.13 109.292L701.853 -0.43434M2171.95 109.292L2063.68 -0.43434M823.036 109.292L714.765 -0.43434M2185.86 109.292L2079.57 -0.43434M836.943 109.292L730.659 -0.43434M2200.76 109.292L2092.49 -0.43434M851.842 109.292L743.571 -0.43434M2214.66 109.292L2107.39 -0.43434M865.749 109.292L758.471 -0.43434M2228.57 109.292L2121.29 -0.43434M879.655 109.292L772.377 -0.43434M2242.48 109.292L2134.21 -0.43434M893.56 109.292L785.289 -0.43434M2256.38 109.292L2149.11 -0.43434M907.467 109.292L800.189 -0.43434M2271.28 109.292L2163.01 -0.43434M922.367 109.292L814.096 -0.43434M2284.2 109.292L2176.92 -0.43434M935.279 109.292L828.001 -0.43434M2299.09 109.292L2190.82 -0.43434M950.181 109.292L841.91 -0.43434M2313 109.292L2204.73 -0.43434M964.086 109.292L855.815 -0.43434M2326.91 109.292L2219.63 -0.43434M977.993 109.292L870.715 -0.43434M2341.81 109.292L2232.54 -0.43434M992.894 109.292L883.629 -0.43434M1678.28 109.292L1571 -0.43434M329.362 109.292L222.084 -0.43434M1694.17 109.292L1585.9 -0.43434M345.252 109.292L236.981 -0.43434M1707.08 109.292L1599.8 -0.43434M358.168 109.292L250.89 -0.43434M1721.98 109.292L1613.71 -0.43434M373.066 109.292L264.795 -0.43434M1735.89 109.292L1628.61 -0.43434M386.972 109.292L279.695 -0.43434M1748.8 109.292L1642.52 -0.43434M399.886 109.292L293.602 -0.43434M1763.7 109.292L1656.42 -0.43434M414.786 109.292L307.509 -0.43434M1777.61 109.292L1669.34 -0.43434M428.692 109.292L320.421 -0.43434M1791.51 109.292L1684.24 -0.43434M442.598 109.292L335.32 -0.43434M1805.42 109.292L1698.14 -0.43434M456.505 109.292L349.227 -0.43434M1820.32 109.292L1712.05 -0.43434M471.403 109.292L363.132 -0.43434M1834.23 109.292L1725.96 -0.43434M485.31 109.292L377.039 -0.43434M1849.13 109.292L1740.85 -0.43434M500.208 109.292L391.937 -0.43434M1862.04 109.292L1754.76 -0.43434M513.123 109.292L405.845 -0.43434M1875.95 109.292L1769.66 -0.43434M527.029 109.292L420.745 -0.43434M1890.84 109.292L1782.57 -0.43434M541.929 109.292L433.659 -0.43434M1904.75 109.292L1797.47 -0.43434M555.836 109.292L448.559 -0.43434M1918.66 109.292L1811.38 -0.43434M569.741 109.292L462.464 -0.43434M1932.56 109.292L1825.29 -0.43434M583.647 109.292L476.37 -0.43434M1947.46 109.292L1839.19 -0.43434M598.547 109.292L490.276 -0.43434M1960.38 109.292L1853.1 -0.43434M611.461 109.292L504.183 -0.43434M1974.28 109.292L1868 -0.43434M625.368 109.292L519.083 -0.43434M1989.18 109.292L1880.91 -0.43434M640.267 109.292L531.996 -0.43434M2003.09 109.292L1895.81 -0.43434M654.174 109.292L546.897 -0.43434M1342.54 109.292L1235.26 -0.43434M-6.37871 109.292L-113.656 -0.43434M1357.44 109.292L1250.16 -0.43434M8.52071 109.292L-98.7568 -0.43434M1371.34 109.292L1263.07 -0.43434M22.4257 109.292L-85.8451 -0.43434M1385.25 109.292L1276.98 -0.43434M36.3337 109.292L-71.9372 -0.43434M1399.16 109.292L1291.88 -0.43434M50.2419 109.292L-57.0356 -0.43434M1413.06 109.292L1305.78 -0.43434M64.1469 109.292L-43.1306 -0.43434M1426.97 109.292L1320.68 -0.43434M78.0529 109.292L-28.2313 -0.43434M1440.87 109.292L1333.6 -0.43434M91.9599 109.292L-15.3176 -0.43434M1454.78 109.292L1348.5 -0.43434M105.866 109.292L-0.41832 -0.43434M1469.68 109.292L1362.4 -0.43434M120.765 109.292L13.4878 -0.43434M1483.59 109.292L1376.31 -0.43434M134.671 109.292L27.3938 -0.43434M1497.49 109.292L1390.22 -0.43434M148.578 109.292L41.3008 -0.43434M1511.4 109.292L1404.12 -0.43434M162.483 109.292L55.2058 -0.43434M1525.31 109.292L1419.02 -0.43434M176.391 109.292L70.1071 -0.43434M1540.21 109.292L1431.93 -0.43434M191.29 109.292L83.0189 -0.43434M1554.11 109.292L1446.83 -0.43434M205.198 109.292L97.9202 -0.43434M1568.02 109.292L1459.75 -0.43434M219.104 109.292L110.833 -0.43434M1581.93 109.292L1474.65 -0.43434M233.01 109.292L125.732 -0.43434M1596.83 109.292L1488.55 -0.43434M247.91 109.292L139.639 -0.43434M1610.73 109.292L1501.47 -0.43434M261.815 109.292L152.551 -0.43434M1624.64 109.292L1517.36 -0.43434M275.723 109.292L168.446 -0.43434M1638.54 109.292L1530.27 -0.43434M289.627 109.292L181.356 -0.43434M1652.45 109.292L1545.17 -0.43434M303.535 109.292L196.257 -0.43434M1666.36 109.292L1559.08 -0.43434M317.441 109.292L210.163 -0.43434" stroke="#F5F6FC" stroke-width="1.06944"/>
</g>
<defs>
<clipPath id="clip0_130_235">
<rect width="2588" height="109" fill="white"/>
</clipPath>
</defs>
</svg>
